<svg width="218" height="190" viewBox="0 0 218 190" fill="none" xmlns="http://www.w3.org/2000/svg">
<rect x="83" width="4" height="13" rx="1" fill="#FFF500"/>
<rect x="83" y="15" width="4" height="13" rx="1" fill="#0085FF"/>
<rect x="174" width="4" height="13" rx="1" fill="#0085FF"/>
<rect x="174" y="15" width="4" height="13" rx="1" fill="#CC00FF"/>
<rect x="129" y="77" width="4" height="36" rx="1" fill="#0085FF"/>
<rect x="38" y="77" width="4" height="36" rx="1" fill="#0085FF"/>
<rect x="0.300476" y="49.3311" width="4" height="13" rx="1" transform="rotate(-63 0.300476 49.3311)" fill="#0085FF"/>
<rect x="17" y="58.564" width="4" height="13" rx="1" transform="rotate(-63 17 58.564)" fill="#FFF500"/>
<rect x="19.247" y="135.873" width="4" height="13" rx="1" transform="rotate(-122 19.247 135.873)" fill="#0085FF"/>
<rect x="2.11969" y="146.281" width="4" height="13" rx="1" transform="rotate(-122 2.11969 146.281)" fill="#CC00FF"/>
<rect x="54" y="79.9641" width="4" height="39" rx="1" transform="rotate(-120 54 79.9641)" fill="#0085FF"/>
<rect x="47" y="67.9641" width="4" height="37.7875" rx="1" transform="rotate(-120 47 67.9641)" fill="#0085FF"/>
<rect x="124.729" y="63.319" width="4" height="36.6381" rx="1" transform="rotate(120 124.729 63.319)" fill="#0085FF"/>
<rect x="122.975" y="124.039" width="4" height="36.9214" rx="1" transform="rotate(60 122.975 124.039)" fill="#0085FF"/>
<rect x="45" y="126.464" width="4" height="38.4071" rx="1" transform="rotate(-60 45 126.464)" fill="#0085FF"/>
<rect x="215.775" y="123" width="4" height="39" rx="1" transform="rotate(60 215.775 123)" fill="#0085FF"/>
<rect x="136" y="126.464" width="4" height="37.741" rx="1" transform="rotate(-60 136 126.464)" fill="#0085FF"/>
<rect x="142" y="114.464" width="4" height="39" rx="1" transform="rotate(-60 142 114.464)" fill="#CC00FF"/>
<rect x="202.177" y="54.9173" width="4" height="19.8345" rx="1" transform="rotate(120 202.177 54.9173)" fill="#0085FF"/>
<rect x="138.817" y="66.9149" width="4" height="36.9017" rx="1" transform="rotate(-120 138.817 66.9149)" fill="#0085FF"/>
<rect x="83" y="162" width="4" height="13" rx="1" fill="#CC00FF"/>
<rect x="83" y="177" width="4" height="13" rx="1" fill="#0085FF"/>
<rect x="174" y="162" width="4" height="13" rx="1" fill="#FFF500"/>
<rect x="174" y="177" width="4" height="13" rx="1" fill="#0085FF"/>
<circle cx="39.5" cy="69.5" r="9" stroke="#CC00FF" stroke-width="3"/>
<circle cx="85.5" cy="42.5" r="9" stroke="#0085FF" stroke-width="3"/>
<circle cx="85.5" cy="148.5" r="9" stroke="#0085FF" stroke-width="3"/>
<circle cx="176.5" cy="42.5" r="9" stroke="#FFF500" stroke-width="3"/>
<circle cx="176.5" cy="148.5" r="9" stroke="#CC00FF" stroke-width="3"/>
<circle cx="39.5" cy="120.5" r="9" stroke="#FFF500" stroke-width="3"/>
<circle cx="130.5" cy="69.5" r="9" stroke="#0085FF" stroke-width="3"/>
<circle cx="130.5" cy="120.5" r="9" stroke="#FFF500" stroke-width="3"/>
</svg>
